Rokkitt Light-100.ufo
<glyph name="exclam" format="1">
  <advance width="150"/>
  <unicode hex="0021"/>
  <outline>
    <contour>
      <point x="69" y="321" type="line"/>
      <point x="83" y="321" type="line"/>
      <point x="99" y="730" type="line"/>
      <point x="99" y="1156" type="line"/>
      <point x="52" y="1156" type="line"/>
      <point x="52" y="730" type="line"/>
    </contour>
    <contour>
      <point x="76" y="-15" type="curve" smooth="yes"/>
      <point x="104" y="-15"/>
      <point x="123" y="2"/>
      <point x="123" y="27" type="curve" smooth="yes"/>
      <point x="123" y="51"/>
      <point x="104" y="68"/>
      <point x="76" y="68" type="curve"/>
      <point x="50" y="68"/>
      <point x="32" y="51"/>
      <point x="32" y="27" type="curve" smooth="yes"/>
      <point x="32" y="2"/>
      <point x="50" y="-15"/>
    </contour>
  </outline>
</glyph>
<glyph name="quotedbl" format="1">
  <advance width="514"/>
  <unicode hex="0022"/>
  <outline>
    <contour>
      <point x="185" y="909" type="line"/>
      <point x="204" y="909" type="line"/>
      <point x="215" y="1259" type="line"/>
      <point x="166" y="1259" type="line"/>
    </contour>
    <contour>
      <point x="317" y="909" type="line"/>
      <point x="335" y="909" type="line"/>
      <point x="357" y="1259" type="line"/>
      <point x="308" y="1259" type="line"/>
    </contour>
  </outline>
</glyph>
<glyph name="six" format="1">
  <advance width="829"/>
  <unicode hex="0036"/>
  <outline>
    <contour>
      <point x="406" y="-22" type="curve" smooth="yes"/>
      <point x="630" y="-22"/>
      <point x="770" y="110"/>
      <point x="770" y="320" type="curve" smooth="yes"/>
      <point x="770" y="531"/>
      <point x="632" y="663"/>
      <point x="413" y="663" type="curve" smooth="yes"/>
      <point x="349" y="663"/>
      <point x="233" y="637"/>
      <point x="172" y="572" type="curve"/>
      <point x="547" y="1208" type="line"/>
      <point x="505" y="1228" type="line"/>
      <point x="142" y="598" type="line" smooth="yes"/>
      <point x="113" y="548"/>
      <point x="57" y="444"/>
      <point x="57" y="307" type="curve" smooth="yes"/>
      <point x="57" y="114"/>
      <point x="202" y="-22"/>
    </contour>
    <contour>
      <point x="406" y="10" type="curve" smooth="yes"/>
      <point x="226" y="10"/>
      <point x="99" y="133"/>
      <point x="99" y="307" type="curve" smooth="yes"/>
      <point x="99" y="514"/>
      <point x="257" y="631"/>
      <point x="413" y="631" type="curve" smooth="yes"/>
      <point x="606" y="631"/>
      <point x="728" y="511"/>
      <point x="728" y="320" type="curve" smooth="yes"/>
      <point x="728" y="130"/>
      <point x="604" y="10"/>
    </contour>
  </outline>
</glyph>
<glyph name="eight" format="1">
  <advance width="964"/>
  <unicode hex="0038"/>
  <outline>
    <contour>
      <point x="482" y="-22" type="curve" smooth="yes"/>
      <point x="709" y="-22"/>
      <point x="852" y="100"/>
      <point x="852" y="294" type="curve" smooth="yes"/>
      <point x="852" y="456"/>
      <point x="761" y="573"/>
      <point x="595" y="603" type="curve"/>
      <point x="746" y="625"/>
      <point x="814" y="745"/>
      <point x="814" y="887" type="curve" smooth="yes"/>
      <point x="814" y="1064"/>
      <point x="686" y="1175"/>
      <point x="483" y="1174" type="curve" smooth="yes"/>
      <point x="280" y="1175"/>
      <point x="152" y="1064"/>
      <point x="152" y="887" type="curve" smooth="yes"/>
      <point x="152" y="750"/>
      <point x="210" y="662"/>
      <point x="361" y="615" type="curve"/>
      <point x="190" y="592"/>
      <point x="112" y="455"/>
      <point x="112" y="294" type="curve" smooth="yes"/>
      <point x="112" y="100"/>
      <point x="255" y="-22"/>
    </contour>
    <contour>
      <point x="482" y="14" type="curve" smooth="yes"/>
      <point x="281" y="14"/>
      <point x="154" y="122"/>
      <point x="154" y="294" type="curve" smooth="yes"/>
      <point x="154" y="473"/>
      <point x="232" y="571"/>
      <point x="406" y="597" type="curve"/>
      <point x="717" y="584"/>
      <point x="810" y="473"/>
      <point x="810" y="294" type="curve" smooth="yes"/>
      <point x="810" y="122"/>
      <point x="683" y="14"/>
    </contour>
    <contour>
      <point x="576" y="621" type="curve"/>
      <point x="292" y="630"/>
      <point x="194" y="723"/>
      <point x="194" y="887" type="curve" smooth="yes"/>
      <point x="194" y="1041"/>
      <point x="305" y="1138"/>
      <point x="483" y="1138" type="curve" smooth="yes"/>
      <point x="661" y="1138"/>
      <point x="772" y="1041"/>
      <point x="772" y="887" type="curve" smooth="yes"/>
      <point x="772" y="714"/>
      <point x="704" y="658"/>
    </contour>
  </outline>
</glyph>
<glyph name="at" format="1">
  <advance width="1379"/>
  <unicode hex="0040"/>
  <outline>
    <contour>
      <point x="756" y="-25" type="curve" smooth="yes"/>
      <point x="922" y="-25"/>
      <point x="1034" y="10"/>
      <point x="1129" y="78" type="curve"/>
      <point x="1116" y="99" type="line"/>
      <point x="1022" y="37"/>
      <point x="906" y="4"/>
      <point x="756" y="4" type="curve" smooth="yes"/>
      <point x="383" y="4"/>
      <point x="162" y="219"/>
      <point x="162" y="543" type="curve" smooth="yes"/>
      <point x="162" y="876"/>
      <point x="408" y="1127"/>
      <point x="743" y="1127" type="curve" smooth="yes"/>
      <point x="1087" y="1127"/>
      <point x="1239" y="908"/>
      <point x="1239" y="678" type="curve" smooth="yes"/>
      <point x="1239" y="420"/>
      <point x="1072" y="275"/>
      <point x="976" y="279" type="curve" smooth="yes"/>
      <point x="913" y="282"/>
      <point x="899" y="323"/>
      <point x="932" y="475" type="curve" smooth="yes"/>
      <point x="1020" y="874" type="line"/>
      <point x="992" y="874" type="line"/>
      <point x="947" y="672" type="line"/>
      <point x="949" y="814"/>
      <point x="855" y="894"/>
      <point x="731" y="894" type="curve" smooth="yes"/>
      <point x="529" y="894"/>
      <point x="417" y="699"/>
      <point x="417" y="519" type="curve" smooth="yes"/>
      <point x="417" y="341"/>
      <point x="522" y="250"/>
      <point x="650" y="250" type="curve" smooth="yes"/>
      <point x="780" y="250"/>
      <point x="867" y="350"/>
      <point x="909" y="480" type="curve"/>
      <point x="846" y="302"/>
      <point x="906" y="255"/>
      <point x="961" y="250" type="curve" smooth="yes"/>
      <point x="1100" y="238"/>
      <point x="1273" y="419"/>
      <point x="1273" y="678" type="curve" smooth="yes"/>
      <point x="1273" y="918"/>
      <point x="1123" y="1156"/>
      <point x="747" y="1156" type="curve" smooth="yes"/>
      <point x="345" y="1156"/>
      <point x="118" y="844"/>
      <point x="118" y="545" type="curve" smooth="yes"/>
      <point x="118" y="251"/>
      <point x="323" y="-25"/>
    </contour>
    <contour>
      <point x="655" y="279" type="curve" smooth="yes"/>
      <point x="522" y="279"/>
      <point x="456" y="371"/>
      <point x="456" y="518" type="curve" smooth="yes"/>
      <point x="456" y="706"/>
      <point x="562" y="862"/>
      <point x="727" y="862" type="curve" smooth="yes"/>
      <point x="845" y="862"/>
      <point x="921" y="796"/>
      <point x="921" y="650" type="curve" smooth="yes"/>
      <point x="921" y="483"/>
      <point x="816" y="279"/>
    </contour>
  </outline>
</glyph>
<glyph name="B" format="1">
  <advance width="1315"/>
  <unicode hex="0042"/>
  <outline>
    <contour>
      <point x="328" y="0" type="line"/>
      <point x="897" y="0" type="line" smooth="yes"/>
      <point x="1074" y="0"/>
      <point x="1195" y="127"/>
      <point x="1195" y="314" type="curve" smooth="yes"/>
      <point x="1195" y="442"/>
      <point x="1143" y="578"/>
      <point x="949" y="609" type="curve"/>
      <point x="1059" y="628"/>
      <point x="1123" y="732"/>
      <point x="1123" y="873" type="curve" smooth="yes"/>
      <point x="1123" y="1060"/>
      <point x="1007" y="1152"/>
      <point x="795" y="1152" type="curve" smooth="yes"/>
      <point x="329" y="1152" type="line"/>
      <point x="329" y="1118" type="line"/>
      <point x="795" y="1118" type="line" smooth="yes"/>
      <point x="981" y="1118"/>
      <point x="1084" y="1043"/>
      <point x="1084" y="873" type="curve" smooth="yes"/>
      <point x="1084" y="731"/>
      <point x="1022" y="623"/>
      <point x="864" y="623" type="curve" smooth="yes"/>
      <point x="331" y="623" type="line"/>
      <point x="331" y="589" type="line"/>
      <point x="864" y="589" type="line" smooth="yes"/>
      <point x="1065" y="589"/>
      <point x="1153" y="467"/>
      <point x="1153" y="314" type="curve" smooth="yes"/>
      <point x="1153" y="146"/>
      <point x="1050" y="34"/>
      <point x="897" y="34" type="curve" smooth="yes"/>
      <point x="328" y="34" type="line"/>
    </contour>
    <component base="uc_main_stem" xOffset="16"/>
    <contour>
      <point x="594" y="1152" type="move" name="top"/>
    </contour>
  </outline>
</glyph>
<glyph name="F" format="1">
  <advance width="1177"/>
  <unicode hex="0046"/>
  <outline>
    <contour>
      <point x="851" y="390" type="line"/>
      <point x="887" y="390" type="line"/>
      <point x="887" y="770" type="line"/>
      <point x="851" y="770" type="line"/>
      <point x="851" y="609" type="line"/>
      <point x="333" y="609" type="line"/>
      <point x="333" y="575" type="line"/>
      <point x="851" y="575" type="line"/>
    </contour>
    <contour>
      <point x="1039" y="796" type="line"/>
      <point x="1075" y="796" type="line"/>
      <point x="1075" y="1152" type="line"/>
      <point x="323" y="1152" type="line"/>
      <point x="323" y="1118" type="line"/>
      <point x="1039" y="1118" type="line"/>
    </contour>
    <component base="uc_main_stem" xOffset="16"/>
    <contour>
      <point x="649" y="1152" type="move" name="top"/>
    </contour>
  </outline>
</glyph>
<glyph name="H" format="1">
  <advance width="1506"/>
  <unicode hex="0048"/>
  <outline>
    <contour>
      <point x="326" y="564" type="line"/>
      <point x="1180" y="564" type="line"/>
      <point x="1181" y="598" type="line"/>
      <point x="327" y="598" type="line"/>
    </contour>
    <component base="uc_main_stem" xOffset="865"/>
    <component base="uc_main_stem" xOffset="16"/>
    <contour>
      <point x="750" y="1152" type="move" name="top"/>
    </contour>
    <contour>
      <point x="752" y="0" type="move" name="bot"/>
    </contour>
  </outline>
</glyph>
<glyph name="J" format="1">
  <advance width="551"/>
  <unicode hex="004A"/>
  <outline>
    <contour>
      <point x="107" y="-40" type="line"/>
      <point x="212" y="-40" type="line" smooth="yes"/>
      <point x="313" y="-39"/>
      <point x="362" y="-20"/>
      <point x="362" y="161" type="curve" smooth="yes"/>
      <point x="362" y="1118" type="line"/>
      <point x="483" y="1118" type="line"/>
      <point x="483" y="1152" type="line"/>
      <point x="189" y="1152" type="line"/>
      <point x="189" y="1118" type="line"/>
      <point x="318" y="1118" type="line"/>
      <point x="318" y="173" type="line" smooth="yes"/>
      <point x="318" y="42"/>
      <point x="307" y="-6"/>
      <point x="229" y="-6" type="curve" smooth="yes"/>
      <point x="107" y="-6" type="line"/>
    </contour>
    <contour>
      <point x="346" y="1152" type="move" name="top"/>
    </contour>
  </outline>
</glyph>
<glyph name="M" format="1">
  <advance width="1606"/>
  <unicode hex="004D"/>
  <outline>
    <contour>
      <point x="146" y="0" type="line"/>
      <point x="499" y="0" type="line"/>
      <point x="499" y="34" type="line"/>
      <point x="343" y="34" type="line"/>
      <point x="343" y="1058" type="line"/>
      <point x="818" y="105" type="line"/>
      <point x="822" y="105" type="line"/>
      <point x="1270" y="1058" type="line"/>
      <point x="1270" y="34" type="line"/>
      <point x="1112" y="34" type="line"/>
      <point x="1112" y="0" type="line"/>
      <point x="1467" y="0" type="line"/>
      <point x="1467" y="34" type="line"/>
      <point x="1314" y="34" type="line"/>
      <point x="1314" y="1118" type="line"/>
      <point x="1467" y="1118" type="line"/>
      <point x="1467" y="1152" type="line"/>
      <point x="1267" y="1152" type="line"/>
      <point x="819" y="190" type="line"/>
      <point x="342" y="1152" type="line"/>
      <point x="146" y="1152" type="line"/>
      <point x="146" y="1118" type="line"/>
      <point x="299" y="1118" type="line"/>
      <point x="299" y="34" type="line"/>
      <point x="146" y="34" type="line"/>
    </contour>
    <contour>
      <point x="795" y="1152" type="move" name="top"/>
    </contour>
  </outline>
</glyph>
<glyph name="P" format="1">
  <advance width="1226"/>
  <unicode hex="0050"/>
  <outline>
    <contour>
      <point x="448" y="500" type="line"/>
      <point x="766" y="500" type="line" smooth="yes"/>
      <point x="960" y="500"/>
      <point x="1075" y="631"/>
      <point x="1075" y="852" type="curve" smooth="yes"/>
      <point x="1075" y="1041"/>
      <point x="956" y="1152"/>
      <point x="754" y="1152" type="curve" smooth="yes"/>
      <point x="326" y="1152" type="line"/>
      <point x="326" y="1118" type="line"/>
      <point x="753" y="1118" type="line" smooth="yes"/>
      <point x="927" y="1118"/>
      <point x="1030" y="1019"/>
      <point x="1031" y="851" type="curve" smooth="yes"/>
      <point x="1032" y="652"/>
      <point x="934" y="534"/>
      <point x="767" y="534" type="curve" smooth="yes"/>
      <point x="449" y="534" type="line"/>
    </contour>
    <component base="uc_main_stem" xOffset="16"/>
    <contour>
      <point x="680" y="1152" type="move" name="top"/>
    </contour>
  </outline>
</glyph>
<glyph name="Q" format="1">
  <advance width="1438"/>
  <unicode hex="0051"/>
  <outline>
    <contour>
      <point x="1154" y="-174" type="curve"/>
      <point x="1143" y="-146" type="line"/>
      <point x="962" y="-206"/>
      <point x="907" y="-132"/>
      <point x="746" y="-4" type="curve"/>
      <point x="697" y="-6" type="line"/>
      <point x="893" y="-156"/>
      <point x="948" y="-245"/>
    </contour>
    <component base="O"/>
  </outline>
</glyph>
<glyph name="bracketright" format="1">
  <advance width="316"/>
  <unicode hex="005D"/>
  <outline>
    <contour>
      <point x="-10" y="-127" type="line"/>
      <point x="150" y="-127" type="line"/>
      <point x="150" y="1189" type="line"/>
      <point x="-10" y="1189" type="line"/>
      <point x="-10" y="1152" type="line"/>
      <point x="100" y="1152" type="line"/>
      <point x="100" y="-88" type="line"/>
      <point x="-10" y="-88" type="line"/>
    </contour>
  </outline>
</glyph>
<glyph name="h" format="1">
  <advance width="965"/>
  <unicode hex="0068"/>
  <outline>
    <component base="lc_xheight_curved_stem" xOffset="-126"/>
    <component base="lc_ascender_stem" xOffset="-58"/>
    <contour>
      <point x="499" y="1005" type="move" name="top"/>
    </contour>
    <contour>
      <point x="206" y="970" type="move" name="mid"/>
    </contour>
  </outline>
</glyph>
<glyph name="i" format="1">
  <advance width="537"/>
  <unicode hex="0069"/>
  <outline>
    <component base="dotlessi"/>
    <component base="dotaccent" xOffset="32"/>
    <contour>
      <point x="284" y="0" type="move" name="ogonek"/>
    </contour>
  </outline>
</glyph>
<glyph name="r" format="1">
  <advance width="773"/>
  <unicode hex="0072"/>
  <outline>
    <contour>
      <point x="347" y="467" type="line"/>
      <point x="347" y="670"/>
      <point x="447" y="791"/>
      <point x="557" y="791" type="curve" smooth="yes"/>
      <point x="612" y="791"/>
      <point x="647" y="778"/>
      <point x="689" y="755" type="curve"/>
      <point x="698" y="787" type="line"/>
      <point x="653" y="813"/>
      <point x="609" y="825"/>
      <point x="554" y="825" type="curve" smooth="yes"/>
      <point x="456" y="825"/>
      <point x="354" y="755"/>
      <point x="323" y="549" type="curve"/>
    </contour>
    <component base="lc_xheight_stem" xOffset="27"/>
    <contour>
      <point x="503" y="805" type="move" name="top"/>
    </contour>
    <contour>
      <point x="332" y="0" type="move" name="bot"/>
    </contour>
  </outline>
</glyph>
<glyph name="s" format="1">
  <advance width="919"/>
  <unicode hex="0073"/>
  <outline>
    <contour>
      <point x="479" y="-22" type="curve" smooth="yes"/>
      <point x="638" y="-22"/>
      <point x="796" y="44"/>
      <point x="796" y="193" type="curve" smooth="yes"/>
      <point x="796" y="364"/>
      <point x="685" y="388"/>
      <point x="511" y="426" type="curve" smooth="yes"/>
      <point x="372" y="456" type="line" smooth="yes"/>
      <point x="279" y="476"/>
      <point x="199" y="514"/>
      <point x="197" y="606" type="curve" smooth="yes"/>
      <point x="196" y="735"/>
      <point x="322" y="792"/>
      <point x="445" y="792" type="curve" smooth="yes"/>
      <point x="540" y="792"/>
      <point x="663" y="744"/>
      <point x="707" y="682" type="curve"/>
      <point x="712" y="545" type="line"/>
      <point x="752" y="545" type="line"/>
      <point x="752" y="804" type="line"/>
      <point x="710" y="804" type="line"/>
      <point x="710" y="728" type="line"/>
      <point x="646" y="790"/>
      <point x="541" y="826"/>
      <point x="445" y="826" type="curve" smooth="yes"/>
      <point x="296" y="826"/>
      <point x="155" y="761"/>
      <point x="155" y="604" type="curve" smooth="yes"/>
      <point x="155" y="496"/>
      <point x="241" y="443"/>
      <point x="366" y="417" type="curve" smooth="yes"/>
      <point x="503" y="389" type="line" smooth="yes"/>
      <point x="678" y="353"/>
      <point x="755" y="322"/>
      <point x="756" y="193" type="curve"/>
      <point x="758" y="84"/>
      <point x="642" y="12"/>
      <point x="479" y="12" type="curve" smooth="yes"/>
      <point x="359" y="12"/>
      <point x="257" y="49"/>
      <point x="190" y="125" type="curve"/>
      <point x="187" y="233" type="line"/>
      <point x="148" y="233" type="line"/>
      <point x="148" y="0" type="line"/>
      <point x="188" y="0" type="line"/>
      <point x="188" y="84" type="line"/>
      <point x="238" y="27"/>
      <point x="353" y="-22"/>
    </contour>
    <contour>
      <point x="458" y="805" type="move" name="top"/>
    </contour>
    <contour>
      <point x="470" y="0" type="move" name="bot"/>
    </contour>
  </outline>
</glyph>
<glyph name="braceleft" format="1">
  <advance width="404"/>
  <unicode hex="007B"/>
  <outline>
    <contour>
      <point x="304" y="12" type="curve" smooth="yes"/>
      <point x="361" y="12" type="line"/>
      <point x="361" y="45" type="line"/>
      <point x="240" y="45"/>
      <point x="202" y="71"/>
      <point x="202" y="218" type="curve" smooth="yes"/>
      <point x="202" y="450"/>
      <point x="194" y="579"/>
      <point x="78" y="576" type="curve"/>
      <point x="191" y="570"/>
      <point x="202" y="700"/>
      <point x="202" y="920" type="curve" smooth="yes"/>
      <point x="202" y="1082"/>
      <point x="233" y="1106"/>
      <point x="361" y="1106" type="curve"/>
      <point x="361" y="1141" type="line"/>
      <point x="305" y="1141" type="line"/>
      <point x="147" y="1141"/>
      <point x="141" y="1031"/>
      <point x="141" y="834" type="curve" smooth="yes"/>
      <point x="141" y="657"/>
      <point x="146" y="609"/>
      <point x="8" y="609" type="curve"/>
      <point x="8" y="543" type="line"/>
      <point x="136" y="543"/>
      <point x="141" y="503"/>
      <point x="141" y="345" type="curve" smooth="yes"/>
      <point x="141" y="124"/>
      <point x="146" y="12"/>
    </contour>
  </outline>
</glyph>
<glyph name="bar" format="1">
  <advance width="348"/>
  <unicode hex="007C"/>
  <outline>
    <contour>
      <point x="159" y="6" type="line"/>
      <point x="200" y="6" type="line"/>
      <point x="200" y="1180" type="line"/>
      <point x="159" y="1180" type="line"/>
    </contour>
  </outline>
</glyph>
<glyph name="asciitilde" format="1">
  <advance width="708"/>
  <unicode hex="007E"/>
  <outline>
    <contour>
      <point x="633" y="626" type="line"/>
      <point x="606" y="583"/>
      <point x="574" y="558"/>
      <point x="527" y="558" type="curve" smooth="yes"/>
      <point x="404" y="558"/>
      <point x="316" y="674"/>
      <point x="184" y="674" type="curve" smooth="yes"/>
      <point x="133" y="674"/>
      <point x="83" y="641"/>
      <point x="63" y="600" type="curve"/>
      <point x="73" y="566" type="line"/>
      <point x="101" y="615"/>
      <point x="139" y="637"/>
      <point x="186" y="637" type="curve" smooth="yes"/>
      <point x="301" y="637"/>
      <point x="381" y="522"/>
      <point x="527" y="522" type="curve" smooth="yes"/>
      <point x="584" y="522"/>
      <point x="624" y="555"/>
      <point x="643" y="591" type="curve"/>
    </contour>
  </outline>
</glyph>
<glyph name="cent" format="1">
  <advance width="909"/>
  <unicode hex="00A2"/>
  <outline>
    <contour>
      <point x="323" y="-200" type="line"/>
      <point x="637" y="1000" type="line"/>
      <point x="610" y="1004" type="line"/>
      <point x="296" y="-195" type="line"/>
    </contour>
    <component base="c"/>
  </outline>
</glyph>
<glyph name="yen" format="1">
  <advance width="1477"/>
  <unicode hex="00A5"/>
  <outline>
    <contour>
      <point x="308" y="206" type="line"/>
      <point x="942" y="206" type="line"/>
      <point x="942" y="237" type="line"/>
      <point x="308" y="237" type="line"/>
    </contour>
    <contour>
      <point x="308" y="359" type="line"/>
      <point x="942" y="359" type="line"/>
      <point x="942" y="390" type="line"/>
      <point x="308" y="390" type="line"/>
    </contour>
    <component base="Y"/>
  </outline>
</glyph>
<glyph name="registered" format="1">
  <advance width="1512"/>
  <unicode hex="00AE"/>
  <outline>
    <contour>
      <point x="422" y="217" type="line"/>
      <point x="657" y="217" type="line"/>
      <point x="657" y="249" type="line"/>
      <point x="558" y="249" type="line"/>
      <point x="558" y="577" type="line"/>
      <point x="752" y="577" type="line"/>
      <point x="955" y="217" type="line"/>
      <point x="1086" y="217" type="line"/>
      <point x="1086" y="251" type="line"/>
      <point x="981" y="251" type="line"/>
      <point x="794" y="580" type="line"/>
      <point x="934" y="585"/>
      <point x="1012" y="650"/>
      <point x="1012" y="763" type="curve" smooth="yes"/>
      <point x="1012" y="894"/>
      <point x="935" y="967"/>
      <point x="796" y="967" type="curve" smooth="yes"/>
      <point x="414" y="967" type="line"/>
      <point x="414" y="935" type="line"/>
      <point x="519" y="935" type="line"/>
      <point x="519" y="249" type="line"/>
      <point x="422" y="249" type="line"/>
    </contour>
    <contour>
      <point x="558" y="612" type="line"/>
      <point x="558" y="935" type="line"/>
      <point x="796" y="935" type="line" smooth="yes"/>
      <point x="909" y="935"/>
      <point x="974" y="874"/>
      <point x="974" y="763" type="curve" smooth="yes"/>
      <point x="974" y="666"/>
      <point x="909" y="612"/>
      <point x="797" y="612" type="curve" smooth="yes"/>
    </contour>
    <contour>
      <point x="728" y="14" type="curve" smooth="yes"/>
      <point x="337" y="14"/>
      <point x="170" y="300"/>
      <point x="170" y="572" type="curve" smooth="yes"/>
      <point x="170" y="832"/>
      <point x="341" y="1136"/>
      <point x="728" y="1136" type="curve" smooth="yes"/>
      <point x="1110" y="1136"/>
      <point x="1286" y="832"/>
      <point x="1286" y="572" type="curve" smooth="yes"/>
      <point x="1286" y="310"/>
      <point x="1110" y="14"/>
    </contour>
    <contour>
      <point x="728" y="-22" type="curve" smooth="yes"/>
      <point x="1147" y="-22"/>
      <point x="1328" y="289"/>
      <point x="1328" y="571" type="curve" smooth="yes"/>
      <point x="1328" y="851"/>
      <point x="1144" y="1172"/>
      <point x="728" y="1172" type="curve" smooth="yes"/>
      <point x="313" y="1172"/>
      <point x="128" y="852"/>
      <point x="128" y="571" type="curve" smooth="yes"/>
      <point x="128" y="291"/>
      <point x="309" y="-23"/>
    </contour>
  </outline>
</glyph>
<glyph name="acute" format="1">
  <advance width="129"/>
  <unicode hex="00B4"/>
  <outline>
    <contour>
      <point x="87" y="1236" type="line"/>
      <point x="0" y="991" type="line"/>
      <point x="21" y="991" type="line"/>
      <point x="129" y="1236" type="line"/>
    </contour>
    <contour>
      <point x="4" y="804" type="move" name="_top"/>
    </contour>
  </outline>
</glyph>
<glyph name="uni00B5" format="1">
  <advance width="1025"/>
  <unicode hex="00B5"/>
  <outline>
    <contour>
      <point x="199" y="-261" type="line"/>
      <point x="243" y="-261" type="line"/>
      <point x="243" y="365" type="line"/>
      <point x="199" y="365" type="line"/>
    </contour>
    <component base="u"/>
  </outline>
</glyph>
<glyph name="onesuperior" format="1">
  <advance width="531"/>
  <unicode hex="00B9"/>
  <outline>
    <contour>
      <point x="131" y="550" type="line"/>
      <point x="412" y="550" type="line"/>
      <point x="412" y="584" type="line"/>
      <point x="296" y="584" type="line"/>
      <point x="296" y="1308" type="line"/>
      <point x="135" y="1273" type="line"/>
      <point x="146" y="1237" type="line"/>
      <point x="252" y="1262" type="line"/>
      <point x="252" y="584" type="line"/>
      <point x="131" y="584" type="line"/>
    </contour>
  </outline>
</glyph>
<glyph name="Oslash" format="1">
  <advance width="1598"/>
  <unicode hex="00D8"/>
  <outline>
    <contour>
      <point x="266" y="-71" type="line"/>
      <point x="1239" y="1195" type="line"/>
      <point x="1215" y="1213" type="line"/>
      <point x="239" y="-51" type="line"/>
    </contour>
    <component base="O" xOffset="8" yOffset="-10"/>
  </outline>
</glyph>
<glyph name="oslash" format="1">
  <advance width="1023"/>
  <unicode hex="00F8"/>
  <outline>
    <contour>
      <point x="187" y="-193" type="line"/>
      <point x="890" y="979" type="line"/>
      <point x="870" y="995" type="line"/>
      <point x="168" y="-176" type="line"/>
    </contour>
    <component base="o"/>
  </outline>
</glyph>
<glyph name="kgreenlandic" format="1">
  <advance width="927"/>
  <unicode hex="0138"/>
  <outline>
    <contour>
      <point x="681" y="0" type="line"/>
      <point x="879" y="0" type="line"/>
      <point x="879" y="34" type="line"/>
      <point x="706" y="34" type="line"/>
      <point x="343" y="411" type="line"/>
      <point x="731" y="770" type="line"/>
      <point x="874" y="770" type="line"/>
      <point x="874" y="804" type="line"/>
      <point x="522" y="804" type="line"/>
      <point x="522" y="770" type="line"/>
      <point x="674" y="770" type="line"/>
      <point x="286" y="413" type="line"/>
    </contour>
    <contour>
      <point x="72" y="0" type="line"/>
      <point x="395" y="0" type="line"/>
      <point x="395" y="34" type="line"/>
      <point x="256" y="34" type="line"/>
      <point x="256" y="804" type="line"/>
      <point x="80" y="804" type="line"/>
      <point x="80" y="770" type="line"/>
      <point x="212" y="770" type="line"/>
      <point x="212" y="34" type="line"/>
      <point x="72" y="34" type="line"/>
    </contour>
  </outline>
</glyph>
<glyph name="Lslash" format="1">
  <advance width="1243"/>
  <unicode hex="0141"/>
  <outline>
    <contour>
      <point x="124" y="434" type="line"/>
      <point x="524" y="691" type="line"/>
      <point x="524" y="742" type="line"/>
      <point x="124" y="481" type="line"/>
    </contour>
    <component base="L"/>
  </outline>
</glyph>
<glyph name="circumflex" format="1">
  <advance width="347"/>
  <unicode hex="02C6"/>
  <outline>
    <contour>
      <point x="21" y="930" type="line"/>
      <point x="171" y="1197" type="line"/>
      <point x="319" y="930" type="line"/>
      <point x="355" y="930" type="line"/>
      <point x="182" y="1236" type="line"/>
      <point x="159" y="1236" type="line"/>
      <point x="-17" y="930" type="line"/>
    </contour>
    <contour>
      <point x="176" y="804" type="move" name="_top"/>
    </contour>
  </outline>
</glyph>
<glyph name="breveinvertedcomb" format="1">
  <advance width="962"/>
  <unicode hex="0311"/>
  <outline>
    <contour>
      <point x="352" y="934" type="curve"/>
      <point x="382" y="934" type="line"/>
      <point x="400" y="996"/>
      <point x="434" y="1026"/>
      <point x="487" y="1026" type="curve" smooth="yes"/>
      <point x="539" y="1026"/>
      <point x="573" y="996"/>
      <point x="591" y="934" type="curve"/>
      <point x="619" y="934" type="line"/>
      <point x="604" y="1019"/>
      <point x="561" y="1060"/>
      <point x="487" y="1059" type="curve" smooth="yes"/>
      <point x="415" y="1060"/>
      <point x="371" y="1019"/>
    </contour>
    <contour>
      <point x="488" y="804" type="move" name="_top"/>
    </contour>
  </outline>
</glyph>
<glyph name="mu" format="1">
  <advance width="1025"/>
  <unicode hex="03BC"/>
  <outline>
    <contour>
      <point x="199" y="-313" type="line"/>
      <point x="243" y="-313" type="line"/>
      <point x="243" y="377" type="line"/>
      <point x="199" y="377" type="line"/>
    </contour>
    <component base="u"/>
  </outline>
</glyph>
<glyph name="emdash" format="1">
  <advance width="849"/>
  <unicode hex="2014"/>
  <outline>
    <contour>
      <point x="0" y="454" type="line"/>
      <point x="849" y="454" type="line"/>
      <point x="849" y="491" type="line"/>
      <point x="0" y="491" type="line"/>
    </contour>
  </outline>
</glyph>
<glyph name="quoteleft" format="1">
  <advance width="399"/>
  <unicode hex="2018"/>
  <outline>
    <contour>
      <point x="134" y="1053" type="line"/>
      <point x="223" y="1053" type="line"/>
      <point x="223" y="1137" type="line"/>
      <point x="182" y="1137" type="line"/>
      <point x="182" y="1215"/>
      <point x="178" y="1238"/>
      <point x="237" y="1262" type="curve"/>
      <point x="237" y="1289" type="line"/>
      <point x="157" y="1288"/>
      <point x="134" y="1214"/>
      <point x="134" y="1140" type="curve" smooth="yes"/>
    </contour>
  </outline>
</glyph>
<glyph name="dagger" format="1">
  <advance width="364"/>
  <unicode hex="2020"/>
  <outline>
    <contour>
      <point x="172" y="94" type="curve"/>
      <point x="194" y="94" type="line"/>
      <point x="194" y="267"/>
      <point x="220" y="384"/>
      <point x="199" y="521" type="curve"/>
      <point x="199" y="652"/>
      <point x="222" y="693"/>
      <point x="194" y="840" type="curve"/>
      <point x="374" y="828" type="line"/>
      <point x="374" y="869" type="line"/>
      <point x="194" y="865" type="line"/>
      <point x="217" y="1072" type="line"/>
      <point x="148" y="1072" type="line"/>
      <point x="172" y="865" type="line"/>
      <point x="-12" y="869" type="line"/>
      <point x="-12" y="828" type="line"/>
      <point x="172" y="840" type="line"/>
      <point x="144" y="690"/>
      <point x="166" y="649"/>
      <point x="166" y="517" type="curve"/>
      <point x="146" y="383"/>
      <point x="172" y="271"/>
    </contour>
  </outline>
</glyph>
<glyph name="foursuperior" format="1">
  <advance width="718"/>
  <unicode hex="2074"/>
  <outline>
    <contour>
      <point x="307" y="550" type="line"/>
      <point x="592" y="550" type="line"/>
      <point x="592" y="584" type="line"/>
      <point x="467" y="584" type="line"/>
      <point x="467" y="782" type="line"/>
      <point x="664" y="782" type="line"/>
      <point x="664" y="816" type="line"/>
      <point x="467" y="816" type="line"/>
      <point x="467" y="1321" type="line"/>
      <point x="418" y="1321" type="line"/>
      <point x="45" y="812" type="line"/>
      <point x="57" y="782" type="line"/>
      <point x="429" y="782" type="line"/>
      <point x="429" y="584" type="line"/>
      <point x="307" y="584" type="line"/>
    </contour>
    <contour>
      <point x="96" y="816" type="line"/>
      <point x="429" y="1275" type="line"/>
      <point x="429" y="816" type="line"/>
    </contour>
  </outline>
</glyph>
<glyph name="radical" format="1">
  <advance width="1118"/>
  <unicode hex="221A"/>
  <outline>
    <contour>
      <point x="514" y="-14" type="line"/>
      <point x="532" y="-14" type="line"/>
      <point x="986" y="1363" type="line"/>
      <point x="946" y="1363" type="line"/>
      <point x="524" y="75" type="line"/>
      <point x="286" y="621" type="line"/>
      <point x="56" y="621" type="line"/>
      <point x="56" y="587" type="line"/>
      <point x="246" y="587" type="line"/>
    </contour>
  </outline>
</glyph>
<glyph name="lc_ascender_stem" format="1">
  <advance width="1170"/>
  <outline>
    <contour>
      <point x="83" y="0" type="line"/>
      <point x="426" y="0" type="line"/>
      <point x="426" y="34" type="line"/>
      <point x="276" y="34" type="line"/>
      <point x="276" y="1174" type="line"/>
      <point x="91" y="1174" type="line"/>
      <point x="91" y="1140" type="line"/>
      <point x="232" y="1140" type="line"/>
      <point x="232" y="34" type="line"/>
      <point x="83" y="34" type="line"/>
    </contour>
  </outline>
</glyph>
<glyph name="lc_descender_stem" format="1">
  <advance width="1192"/>
  <outline>
    <contour>
      <point x="103" y="-316" type="line"/>
      <point x="421" y="-316" type="line"/>
      <point x="421" y="-282" type="line"/>
      <point x="287" y="-282" type="line"/>
      <point x="288" y="682" type="line"/>
      <point x="287" y="804" type="line"/>
      <point x="119" y="804" type="line"/>
      <point x="119" y="770" type="line"/>
      <point x="243" y="770" type="line"/>
      <point x="243" y="-282" type="line"/>
      <point x="103" y="-282" type="line"/>
    </contour>
  </outline>
</glyph>
<glyph name="lc_xheight_curved_stem" format="1">
  <advance width="1142"/>
  <outline>
    <contour>
      <point x="707" y="0" type="line"/>
      <point x="1085" y="0" type="line"/>
      <point x="1085" y="34" type="line"/>
      <point x="931" y="34" type="line"/>
      <point x="931" y="582" type="line"/>
      <point x="931" y="732"/>
      <point x="837" y="826"/>
      <point x="688" y="826" type="curve" smooth="yes"/>
      <point x="590" y="826"/>
      <point x="444" y="775"/>
      <point x="311" y="694" type="curve"/>
      <point x="311" y="661" type="line"/>
      <point x="463" y="743"/>
      <point x="606" y="790"/>
      <point x="683" y="790" type="curve" smooth="yes"/>
      <point x="808" y="790"/>
      <point x="887" y="719"/>
      <point x="887" y="605" type="curve" smooth="yes"/>
      <point x="887" y="34" type="line"/>
      <point x="707" y="34" type="line"/>
    </contour>
  </outline>
</glyph>
<glyph name="lc_xheight_stem" format="1">
  <advance width="1324"/>
  <outline>
    <contour>
      <point x="93" y="0" type="line"/>
      <point x="494" y="0" type="line"/>
      <point x="494" y="34" type="line"/>
      <point x="318" y="34" type="line"/>
      <point x="318" y="646" type="line"/>
      <point x="318" y="804" type="line"/>
      <point x="96" y="804" type="line"/>
      <point x="96" y="770" type="line"/>
      <point x="274" y="770" type="line"/>
      <point x="274" y="34" type="line"/>
      <point x="93" y="34" type="line"/>
    </contour>
  </outline>
</glyph>
